<?xml version="1.0" encoding="UTF-8"?>
<svg id="Layer_1" data-name="Layer 1" xmlns="http://www.w3.org/2000/svg" xmlns:xlink="http://www.w3.org/1999/xlink" viewBox="0 0 57.02 55.17">
  <defs>
    <style>
      .cls-1 {
        fill: url(#linear-gradient-2);
      }

      .cls-2 {
        fill: url(#linear-gradient-3);
      }

      .cls-3 {
        fill: #fff;
        stroke: #305498;
        stroke-miterlimit: 10;
        stroke-width: 1.22px;
      }

      .cls-4 {
        fill: url(#linear-gradient);
      }
    </style>
    <linearGradient id="linear-gradient" x1="28.17" y1="48.39" x2="28.17" y2="7.27" gradientUnits="userSpaceOnUse">
      <stop offset="0" stop-color="#3faee3"/>
      <stop offset="1" stop-color="#204496"/>
    </linearGradient>
    <linearGradient id="linear-gradient-2" x1="37.36" y1="47.71" x2="37.36" y2="6.45" gradientUnits="userSpaceOnUse">
      <stop offset="0" stop-color="#349fd2"/>
      <stop offset="1" stop-color="#273b86"/>
    </linearGradient>
    <linearGradient id="linear-gradient-3" x1="37.36" y1="47.71" x2="37.36" y2="6.45" xlink:href="#linear-gradient-2"/>
  </defs>
  <g id="Simini_Crest" data-name="Simini Crest">
    <path class="cls-3" d="M7.96,7.85c3.07.15,6.16-.21,9.89-.62,4.74-.51,9.27-1.98,10.33-2.51,1.42.4,6.13,1.9,10.35,2.32s7.41.74,9.87.65c0,8.53.34,11.02.21,15.56-.17,5.8-1.46,9.98-3.58,13.29-2.31,3.61-6.6,7.14-6.6,7.14,0,0-4.14,3.59-10.24,7.34-4.19-2.8-5.08-3.29-9.68-6.81-3.34-2.56-6.48-5.33-8.21-10.01-1.18-3.04-1.68-4.26-2.01-10.11-.24-4.23-.55-9.15-.31-16.24Z"/>
    <g>
      <path class="cls-4" d="M36.92,26.88s-.08.03-.12.04c-1.02.35-2.07.64-3.13.86l-1.47.3c-1.55.31-3.12.48-4.7.49l-4.4.03c-.25,0-.47-.18-.49-.43-.02-.26.16-.48.41-.5l2.83-.31c.2-.02.34-.2.28-.4-.04-.13-.15-.22-.28-.23l-4.63-.42c-.28-.03-.48-.28-.43-.57.04-.23.25-.39.49-.39h4.03c.17,0,.33-.12.35-.29.03-.2-.1-.37-.29-.4l-5.06-.78c-.3-.05-.52-.31-.49-.61.03-.31.31-.53.62-.49l5.22.66c.1.01.21-.02.29-.09.2-.18.13-.51-.13-.6l-4.73-1.6c-.29-.1-.44-.41-.33-.7.1-.27.39-.41.67-.33l5.59,1.77s.04.01.06.01l.24.04c.19.03.38-.04.48-.2.11-.18.08-.41-.06-.56l-1.31-1.36c-.26-.27-.27-.69-.02-.96.25-.26.65-.28.93-.06.57.46,1.69,1.37,3.59,2.88,1,.8,2.33,1.04,3.55.66,3.1-.99,5.41-2.14,7.12-3.31,3.1-2.11,4.93-5.63,4.93-9.38,0,0-12.03,0-18.38-2.85-6.35,2.85-18.38,2.85-18.38,2.85v11.82c0,2.64.64,8.64,12.08,12.28,1.22.39,2.55.14,3.55-.66,1.88-1.5,3-2.4,3.57-2.86.27-.22.66-.22.91.01.28.26.3.7.03.98l-1.32,1.37c-.1.1-.15.24-.13.38.03.27.28.44.53.39l.26-.05s.04,0,.06-.01l5.59-1.77c.27-.09.57.06.67.33.1.28-.05.6-.33.7l-4.94,1.67c-.29.1-.22.53.09.53h0c.08.07.18.1.29.09l5.22-.66c.31-.04.59.18.62.49.03.3-.19.57-.49.61l-5.05.78c-.17.03-.3.16-.31.33,0,.2.15.36.35.36h4.04c.23,0,.45.16.49.39.05.28-.15.54-.43.57l-4.63.42c-.13.01-.24.1-.28.23-.05.19.08.38.28.4l2.81.31c.22.02.41.2.43.42.02.28-.19.51-.47.51l-4.42-.03c-1.58-.01-3.15-.18-4.7-.49l-1.47-.3c-1.06-.22-2.11-.5-3.13-.86-.04-.01-.08-.03-.12-.04-3.21-1.11-5.59-2.48-7.26-4.01,1.71,3.4,4.29,6.37,7.56,8.55l8.43,5.63,8.43-5.63c6.22-4.16,9.95-11.15,9.95-18.63v-4.45c-1.35,2.8-4.36,5.32-9.63,7.14Z"/>
      <g>
        <path class="cls-1" d="M30.94,21.68c1,.8,2.33,1.04,3.55.66,3.1-.99,5.41-2.14,7.12-3.31,3.1-2.11,4.93-5.63,4.93-9.38,0,0-12.03,0-18.38-2.85v12.66c.64.51,1.54,1.24,2.77,2.22Z"/>
        <path class="cls-2" d="M46.55,24.2v-4.45c-1.35,2.8-4.36,5.32-9.63,7.14-.04.01-.08.03-.12.04-1.02.35-2.07.64-3.13.86l-1.47.3c-1.33.27-2.67.43-4.02.47v2.34c.35-.28.62-.5.82-.66.27-.22.66-.22.91.01.28.26.3.7.03.98l-1.32,1.37c-.1.1-.15.24-.13.38.03.27.28.44.53.39l.26-.05s.04,0,.06-.01l5.59-1.77c.27-.09.57.06.67.33.1.28-.05.6-.33.7l-4.94,1.67c-.29.1-.22.53.09.53h0c.08.07.18.1.29.09l5.22-.66c.31-.04.59.18.62.49.03.3-.19.57-.49.61l-5.05.78c-.17.03-.3.16-.31.33,0,.2.15.36.35.36h4.04c.23,0,.45.16.49.39.05.28-.15.54-.43.57l-4.63.42c-.13.01-.24.1-.28.23-.05.19.08.38.28.4l2.81.31c.22.02.41.2.43.42.02.28-.19.51-.47.51l-4.42-.03c-.23,0-.46,0-.7-.02v8.5l8.43-5.63c6.22-4.16,9.95-11.15,9.95-18.63Z"/>
      </g>
    </g>
  </g>
</svg>